<?xml version="1.0" encoding="UTF-8" standalone="no"?>
<!-- Created with Inkscape (http://www.inkscape.org/) -->

<svg
   width="672"
   height="256"
   viewBox="0 0 177.80001 67.733334"
   version="1.1"
   id="svg822"
   inkscape:version="1.2.2 (b0a8486541, 2022-12-01)"
   sodipodi:docname="logo.svg"
   inkscape:export-filename="logo.png"
   inkscape:export-xdpi="96"
   inkscape:export-ydpi="96"
   xmlns:inkscape="http://www.inkscape.org/namespaces/inkscape"
   xmlns:sodipodi="http://sodipodi.sourceforge.net/DTD/sodipodi-0.dtd"
   xmlns:xlink="http://www.w3.org/1999/xlink"
   xmlns="http://www.w3.org/2000/svg"
   xmlns:svg="http://www.w3.org/2000/svg">
  <sodipodi:namedview
     id="namedview824"
     pagecolor="#ffffff"
     bordercolor="#000000"
     borderopacity="0.25"
     inkscape:showpageshadow="2"
     inkscape:pageopacity="0.0"
     inkscape:pagecheckerboard="0"
     inkscape:deskcolor="#d1d1d1"
     inkscape:document-units="mm"
     showgrid="false"
     showguides="true"
     inkscape:zoom="1.0557596"
     inkscape:cx="317.78067"
     inkscape:cy="173.33491"
     inkscape:window-width="1920"
     inkscape:window-height="1008"
     inkscape:window-x="0"
     inkscape:window-y="0"
     inkscape:window-maximized="1"
     inkscape:current-layer="layer1" />
  <defs
     id="defs819">
    <linearGradient
       id="linearGradient1957">
      <stop
         style="stop-color:#000000;stop-opacity:1;"
         offset="0"
         id="stop1955" />
    </linearGradient>
    <linearGradient
       id="linearGradient3086"
       inkscape:swatch="solid"
       gradientTransform="matrix(20.981066,0,0,12.042683,0,-172.60924)">
      <stop
         style="stop-color:#000000;stop-opacity:1;"
         offset="0"
         id="stop3084" />
    </linearGradient>
    <linearGradient
       id="linearGradient3092"
       inkscape:swatch="solid"
       gradientTransform="scale(0.26458333)">
      <stop
         style="stop-color:#2ab9ff;stop-opacity:1;"
         offset="0"
         id="stop3090" />
    </linearGradient>
    <linearGradient
       id="linearGradient3080"
       inkscape:swatch="solid"
       gradientTransform="translate(2.8671534)">
      <stop
         style="stop-color:#ffffff;stop-opacity:1;"
         offset="0"
         id="stop3078" />
    </linearGradient>
    <linearGradient
       inkscape:collect="always"
       xlink:href="#linearGradient3098"
       id="linearGradient5161"
       x1="6.9008708"
       y1="44.450001"
       x2="59.266666"
       y2="44.450001"
       gradientUnits="userSpaceOnUse"
       gradientTransform="matrix(0.42307691,0,0,0.42307691,20.433972,15.060899)" />
    <linearGradient
       id="linearGradient3098"
       inkscape:swatch="solid">
      <stop
         style="stop-color:#ffff00;stop-opacity:1;"
         offset="0"
         id="stop3096" />
    </linearGradient>
    <linearGradient
       inkscape:collect="always"
       xlink:href="#linearGradient3086"
       id="linearGradient1959"
       x1="67.732819"
       y1="33.86615"
       x2="166.69131"
       y2="33.86615"
       gradientUnits="userSpaceOnUse" />
    <linearGradient
       inkscape:collect="always"
       xlink:href="#linearGradient3086"
       id="linearGradient1984"
       gradientUnits="userSpaceOnUse"
       x1="67.732819"
       y1="33.86615"
       x2="166.69131"
       y2="33.86615"
       gradientTransform="translate(1.4335767)" />
    <linearGradient
       inkscape:collect="always"
       xlink:href="#linearGradient3086"
       id="linearGradient1986"
       gradientUnits="userSpaceOnUse"
       x1="67.732819"
       y1="33.86615"
       x2="166.69131"
       y2="33.86615"
       gradientTransform="translate(1.4335767)" />
    <linearGradient
       inkscape:collect="always"
       xlink:href="#linearGradient3086"
       id="linearGradient1988"
       gradientUnits="userSpaceOnUse"
       x1="67.732819"
       y1="33.86615"
       x2="166.69131"
       y2="33.86615" />
    <linearGradient
       inkscape:collect="always"
       xlink:href="#linearGradient3086"
       id="linearGradient1990"
       gradientUnits="userSpaceOnUse"
       x1="67.732819"
       y1="33.86615"
       x2="166.69131"
       y2="33.86615" />
    <linearGradient
       inkscape:collect="always"
       xlink:href="#linearGradient3086"
       id="linearGradient1992"
       gradientUnits="userSpaceOnUse"
       x1="67.732819"
       y1="33.86615"
       x2="166.69131"
       y2="33.86615" />
  </defs>
  <g
     inkscape:label="Layer 1"
     inkscape:groupmode="layer"
     id="layer1"
     transform="translate(0.60370064)">
    <g
       aria-label="PACIO"
       transform="translate(5.1523635e-4,5.1523635e-4)"
       id="text1874"
       style="font-weight:bold;font-size:33.8667px;-inkscape-font-specification:'sans-serif Bold';fill:url(#linearGradient3080);stroke:url(#linearGradient1959);stroke-width:2.11667;stroke-dasharray:none;paint-order:stroke fill markers"
       inkscape:label="Logo">
      <path
         d="m 75.454425,21.792672 q 4.673604,0 6.807206,2.032002 2.167469,1.998135 2.167469,5.520272 0,2.099736 -0.880534,3.962404 -0.880534,1.828802 -2.946403,2.946403 -2.032002,1.117601 -5.554139,1.117601 h -2.201335 v 8.602141 H 67.732817 V 21.792672 Z m -0.270934,4.199471 h -2.336802 v 7.17974 h 1.693335 q 2.167469,0 3.420537,-0.846667 1.286934,-0.880534 1.286934,-2.810936 0,-3.522137 -4.064004,-3.522137 z"
         id="path1944"
         inkscape:label="P"
         style="fill:url(#linearGradient3080);stroke:url(#linearGradient1988);stroke-width:2.11667;stroke-dasharray:none" />
      <path
         d="m 102.10755,45.973495 -1.76107,-5.757338 h -8.805338 l -1.761068,5.757338 H 84.259802 L 92.79421,21.691072 h 6.265339 l 8.568271,24.282423 z M 97.366214,30.293214 Q 97.196881,29.71748 96.925947,28.836946 96.655014,27.956411 96.38408,27.042011 96.113147,26.12761 95.943813,25.450276 q -0.169333,0.677334 -0.474134,1.693335 -0.270933,0.982134 -0.541867,1.896535 -0.237067,0.880534 -0.372534,1.253068 l -1.727201,5.621872 h 6.299206 z"
         id="path1946"
         inkscape:label="A"
         style="fill:url(#linearGradient3080);stroke:url(#linearGradient1990);stroke-width:2.11667;stroke-dasharray:none" />
      <path
         d="m 120.26011,25.721209 q -2.94641,0 -4.50428,2.201336 -1.55786,2.201335 -1.55786,6.028272 0,3.860804 1.4224,5.994406 1.45627,2.099735 4.63974,2.099735 1.49013,0 2.9464,-0.338667 1.49013,-0.338667 3.21733,-0.948267 v 4.301071 q -1.59173,0.643467 -3.1496,0.948267 -1.55787,0.3048 -3.48827,0.3048 -3.72534,0 -6.16374,-1.524001 -2.40453,-1.557868 -3.556,-4.334937 -1.15147,-2.810937 -1.15147,-6.536273 0,-3.657604 1.3208,-6.46854 1.3208,-2.810936 3.82694,-4.402671 2.54,-1.591735 6.19761,-1.591735 1.79493,0 3.58987,0.474134 1.8288,0.440267 3.48827,1.219201 l -1.65947,4.165604 q -1.35467,-0.643467 -2.74321,-1.117601 -1.35466,-0.474134 -2.67546,-0.474134 z"
         id="path1948"
         inkscape:label="C"
         style="fill:url(#linearGradient3080);stroke:url(#linearGradient1992);stroke-width:2.11667;stroke-dasharray:none" />
      <path
         d="m 142.04754,45.973495 h -11.00667 v -2.912536 l 2.9464,-1.354668 V 26.059876 l -2.9464,-1.354668 v -2.912536 h 11.00667 v 2.912536 l -2.9464,1.354668 v 15.646415 l 2.9464,1.354668 z"
         id="path1950"
         inkscape:label="I"
         style="fill:url(#linearGradient3098);stroke:url(#linearGradient1986);stroke-width:2.11667;stroke-dasharray:none" />
      <path
         d="m 168.1249,33.849217 q 0,3.759204 -1.25307,6.57014 -1.2192,2.777069 -3.7592,4.334937 -2.54001,1.557868 -6.50241,1.557868 -3.92854,0 -6.50241,-1.557868 -2.54,-1.557868 -3.79307,-4.368804 -1.2192,-2.810936 -1.2192,-6.57014 0,-3.759203 1.2192,-6.536272 1.25307,-2.77707 3.79307,-4.301071 2.57387,-1.557868 6.53628,-1.557868 3.92853,0 6.46854,1.557868 2.54,1.524001 3.7592,4.334937 1.25307,2.77707 1.25307,6.536273 z m -17.64455,0 q 0,3.79307 1.45626,5.994406 1.45627,2.167469 4.67361,2.167469 3.28507,0 4.70747,-2.167469 1.4224,-2.201336 1.4224,-5.994406 0,-3.826937 -1.4224,-5.994406 -1.4224,-2.167468 -4.6736,-2.167468 -3.25121,0 -4.70748,2.167468 -1.45626,2.167469 -1.45626,5.994406 z"
         id="path1952"
         inkscape:label="O"
         style="fill:url(#linearGradient3092);stroke:url(#linearGradient1984);stroke-width:2.11667;stroke-dasharray:none" />
    </g>
    <g
       inkscape:label="PacIO Icon"
       inkscape:groupmode="layer"
       id="layer1-3"
       transform="translate(5.1523647e-4,5.1523647e-4)">
      <g
         id="path3102"
         inkscape:label="FloppyDisk">
        <path
           id="path3118"
           style="color:#000000;display:inline;fill:url(#linearGradient3086);-inkscape-stroke:none;paint-order:stroke fill markers"
           d="M 7.4083333,7.4083333 V 8.4666667 60.323966 H 60.323966 V 20.728451 L 47.005916,7.4083333 Z"
           inkscape:label="Outline" />
        <path
           id="path3122"
           style="color:#000000;fill:url(#linearGradient3092);paint-order:stroke fill markers"
           d="M 8.4666667,8.4666667 V 59.266667 H 12.7 V 50.8 h 42.333333 v 8.466667 h 4.233334 v -38.1 l -12.7,-12.7000003 V 16.933333 H 12.7 V 8.4666667 Z M 33.866667,21.166667 a 12.7,12.7 0 0 1 12.7,12.7 12.7,12.7 0 0 1 -12.7,12.7 12.7,12.7 0 0 1 -12.7,-12.7 12.7,12.7 0 0 1 12.7,-12.7 z"
           inkscape:label="Base" />
      </g>
      <g
         id="g3200"
         inkscape:label="Top">
        <rect
           style="fill:url(#linearGradient3080);fill-opacity:1;stroke-width:0.122478;paint-order:stroke fill markers"
           id="rect3138"
           width="3.1749995"
           height="7.4083333"
           x="13.758333"
           y="8.4666662"
           inkscape:label="TopLeft" />
        <rect
           style="fill:url(#linearGradient3080);fill-opacity:1;stroke-width:0.308229;paint-order:stroke fill markers"
           id="rect3195"
           width="20.108332"
           height="7.4083333"
           x="25.4"
           y="8.4666662"
           inkscape:label="TopRight" />
      </g>
      <g
         id="g3212"
         inkscape:label="Bottom">
        <rect
           style="fill:url(#linearGradient3080);fill-opacity:1;stroke-width:0.435903;paint-order:stroke fill markers"
           id="rect3138-7"
           width="40.216663"
           height="7.4083333"
           x="13.758332"
           y="51.858334"
           inkscape:label="BottomBase" />
        <rect
           style="fill:url(#linearGradient3086);fill-opacity:1;stroke-width:0.374177;paint-order:stroke fill markers"
           id="rect3202"
           width="38.099998"
           height="1.0583333"
           x="14.816667"
           y="52.916664"
           inkscape:label="Decor" />
        <rect
           style="fill:url(#linearGradient3086);fill-opacity:1;stroke-width:0.374177;paint-order:stroke fill markers"
           id="rect3204"
           width="38.099998"
           height="1.0583333"
           x="14.816667"
           y="55.033333"
           inkscape:label="Decor" />
        <rect
           style="fill:url(#linearGradient3086);fill-opacity:1;stroke:none;stroke-width:0.374177;paint-order:stroke fill markers"
           id="rect3206"
           width="38.099998"
           height="1.0583333"
           x="14.816667"
           y="57.149998"
           inkscape:label="Decor" />
      </g>
      <path
         id="path3368"
         style="fill:url(#linearGradient5161);fill-opacity:1;stroke-width:0.090951;paint-order:stroke fill markers"
         d="m 33.866664,22.224999 a 11.641666,11.641667 0 0 0 -10.513095,6.644635 l 2.453479,0.817899 6.268591,2.089676 6.268589,2.089458 -6.268589,2.089455 -6.268591,2.089676 -2.453479,0.817899 A 11.641666,11.641667 0 0 0 33.866664,45.508332 11.641666,11.641667 0 0 0 45.508332,33.866667 11.641666,11.641667 0 0 0 33.866664,22.224999 Z"
         inkscape:label="Center" />
    </g>
  </g>
</svg>
